<svg width="120" height="120" viewBox="0 0 120 120" fill="none" xmlns="http://www.w3.org/2000/svg">
<path d="M27.0142 32.5877C25.6493 33.0711 22.7204 34.9479 22.5498 35.4313C22.4929 35.6019 23.09 35.8863 23.8862 36.0853C26.4739 36.7393 29.4313 39.4976 31.2796 42.9953L32.1611 44.6446H35.1185H38.0474L38.7583 46.4076C40.0379 49.5924 40.7204 53.4882 40.891 58.3507L41.0332 62.8436H38.0474H35.0616L34.6919 64.0379C34.3507 65.2038 32.5024 69.0995 32.3033 69.0995C32.2749 69.0995 32.3886 68.2465 32.5877 67.1659C33.1848 64.0379 33.3554 59.5166 33.0142 56.1611C31.8199 44.4171 26.3886 35.8294 20.1327 35.8294C15.4123 35.8294 11.5166 39.4976 8.84359 46.4645C8.10426 48.3697 7.79146 49.6209 6.93838 53.6588C6.82464 54.2559 6.90995 54.3128 8.24644 54.3128C9.58293 54.3128 9.66824 54.2559 10.0663 53.346C10.6919 51.8389 12.3697 50.1896 13.564 49.8483C14.2464 49.6493 15.8104 49.5924 17.6872 49.7062C21.2133 49.9337 21.8104 50.2464 23.0616 52.4645C25.8199 57.3839 25.0521 66.3128 21.6114 69.2133C20.4171 70.2085 19.9052 70.2938 16.0948 70.1801L12.8246 70.0948L11.8009 69.0995C11.2607 68.5592 10.5213 67.5924 10.2085 66.91C9.6398 65.7156 9.58293 65.6872 8.24644 65.6872H6.85307L7.02369 66.7393C7.47867 69.7251 8.64454 73.4787 9.92416 76.0664C12.5687 81.4408 15.9526 84.1706 19.9621 84.1706C21.8104 84.1706 21.981 84.2275 23.3175 85.2796C26.2464 87.5829 26.7298 87.7251 33.327 87.8104C38.0189 87.8957 39.5829 87.8104 40.9763 87.4692C45.6398 86.2749 49.9905 81.3839 52.436 74.5592C53.2322 72.3128 54.2843 67.8199 54.5118 65.5166L54.654 64.0664L63.0995 63.8673C67.7346 63.782 73.8483 63.5545 76.7204 63.3839C79.5924 63.2133 82.0095 63.128 82.0948 63.2417C82.3223 63.4692 81.6398 65.0047 81.0995 65.4882C80.5308 66 74.8151 66.7393 69.2417 67.0521L65.545 67.2512L65.6303 68.3886C65.7725 70.4645 67.109 74.8436 68.3886 77.5735C70.6635 82.3792 73.2227 85.3649 76.4644 86.9289L78.0569 87.7251H84.7393H91.4218L93.2986 86.8152C94.3223 86.3033 95.6019 85.5071 96.1422 85.0237C96.9384 84.3412 97.3649 84.1706 98.5308 84.1706C101.801 84.1706 104.815 82.7488 106.777 80.3033C107.261 79.7062 107.972 78.8531 108.37 78.3697C108.796 77.8863 109.45 76.8341 109.82 76.0664C110.701 74.3602 112.18 69.7536 112.464 67.9621C112.749 65.9716 112.863 65.7441 113.602 65.5735C114.057 65.4597 114.37 65.0616 114.654 64.2085L115.081 62.9858L117.242 62.9005C119.63 62.8152 119.63 62.8436 119.772 60.5687L119.858 59.2891L117.498 59.2038C115.365 59.1185 115.166 59.0616 115.024 58.4929C114.91 57.9242 114.626 55.9052 114.597 55.3934C114.597 55.0521 113.716 54.3128 113.318 54.3128C112.976 54.3128 112.948 55.0521 113.09 58.5782L113.261 62.8436H110.218C107.573 62.8436 107.175 62.9005 107.033 63.327C106.635 64.6351 105.355 67.5924 104.986 68.1043C104.588 68.6446 104.588 68.6446 104.73 67.9621C104.815 67.564 104.986 66.3981 105.071 65.3175L105.27 63.4123H101.886H98.4739L98.1327 64.6066C97.7061 66 95.5166 70.6066 95.3744 70.436C95.2891 70.3792 95.4597 69.128 95.7441 67.6493C96.3128 64.3507 96.3981 56.3318 95.8578 53.0332C93.8673 40.8341 88.0948 32.5592 81.2701 32.1896C77.6872 31.9621 74.2464 33.7251 71.5166 37.1659C70.0948 38.9289 67.7915 43.4218 66.8815 46.2085C66.1422 48.4265 65.346 52.2938 65.545 52.6351C65.6588 52.7773 66.5971 52.891 67.6493 52.891C69.5829 52.891 77.545 53.6019 79.7346 53.9716C80.673 54.1422 81.0426 54.3981 81.6967 55.3934C82.1232 56.0474 82.6066 57.1848 82.7204 57.9242L82.9194 59.2891L80.218 59.1185C78.7109 59.0047 72.3412 58.9194 66.0569 58.891L54.5971 58.8626V61.1374V63.3839L51.2986 63.4692L48 63.5545L47.346 65.2607C46.6351 67.1943 44.9289 70.6351 44.7867 70.4929C44.7583 70.436 44.872 69.4692 45.0995 68.3886C45.6967 65.4313 45.9242 58.3792 45.5261 54.8531C44.6445 46.6635 41.8862 39.8673 37.7915 35.7441C35.3175 33.2417 33.3554 32.3318 30.4265 32.218C29.0047 32.1611 27.8673 32.2749 27.0142 32.5877Z" fill="#61DCFB"/>
<path d="M35.8863 32.8152C38.7583 34.0095 41.2607 36.4265 43.3365 40.0095L44.5024 42.0853H47.5735C49.2512 42.0853 50.6161 42.0284 50.6161 41.9716C50.6161 41.5166 49.564 39.5545 48.7393 38.4455C46.9479 36.1137 46.1517 35.3175 44.4455 34.1517C42.3412 32.7014 40.1232 32.1327 36.8247 32.1327H34.2654L35.8863 32.8152Z" fill="#61DCFB"/>
<path d="M86.2181 32.673C89.1754 33.8673 91.9337 36.5687 94.0095 40.2654L95.0332 42.0853H98.2749C100.066 42.0853 101.517 41.9716 101.517 41.8578C101.517 41.7156 101.09 40.9194 100.578 40.0663C99.0996 37.6208 99.128 37.5924 100.777 39.327C101.63 40.2654 102.768 41.8294 103.28 42.8246L104.218 44.6445H107.005C108.512 44.6445 109.763 44.5877 109.763 44.5024C109.763 44.1611 108.512 41.9147 107.801 40.9479C106.976 39.8389 104.673 37.3934 104.389 37.3649C104.303 37.3649 103.592 37.0521 102.825 36.7109C101.943 36.2844 100.664 36 99.2417 35.9147C97.5071 35.7725 96.8816 35.6019 96.3413 35.1469C94.0664 33.0711 92.1612 32.4171 88.1517 32.2464L84.8816 32.1043L86.2181 32.673Z" fill="#61DCFB"/>
<path d="M13.2228 52.3791C12.6256 52.6919 11.6872 53.7441 11.6588 54.0853C11.6588 54.2275 12.1138 54.3128 12.6825 54.3128C13.2228 54.3128 13.9337 54.4265 14.218 54.5972C14.9289 54.9953 15.8957 56.7014 16.0948 58.0379L16.2938 59.1469H11.1185C7.22275 59.1469 5.94313 59.2322 5.85783 59.4882C5.80095 59.6872 5.63034 60.5403 5.48816 61.3365L5.2038 62.8436H10.436C13.8768 62.8436 15.6398 62.9573 15.6398 63.128C15.6398 63.7251 14.7867 65.1185 14.2465 65.4028C13.9337 65.545 13.2228 65.6872 12.6825 65.6872C12.1138 65.6872 11.6588 65.7441 11.6588 65.8294C11.6588 66.3128 12.654 67.3934 13.3365 67.6777C15.2702 68.4739 17.0901 66.0853 17.6872 61.9905C18.2559 58.2085 16.9479 53.4313 15.0995 52.4929C14.1043 51.9526 13.9621 51.9526 13.2228 52.3791Z" fill="#61DCFB"/>
</svg>
