<svg width="28" height="28" viewBox="0 0 28 28" fill="none" xmlns="http://www.w3.org/2000/svg">
<path d="M27.7025 14.315C27.7025 13.3933 27.6208 12.5183 27.4808 11.6667H14.2975V16.9283H21.8458C21.5075 18.655 20.5158 20.1133 19.0458 21.105V24.605H23.5492C26.1858 22.1667 27.7025 18.5733 27.7025 14.315Z" fill="#4285F4"/>
<path d="M14.2975 28C18.0775 28 21.2392 26.74 23.5492 24.605L19.0458 21.105C17.7858 21.945 16.1875 22.4583 14.2975 22.4583C10.6458 22.4583 7.55417 19.9967 6.44583 16.6717H1.8025V20.2767C4.10083 24.85 8.82583 28 14.2975 28Z" fill="#34A853"/>
<path d="M6.44584 16.6717C6.15417 15.8317 6.0025 14.9333 6.0025 14C6.0025 13.0667 6.16583 12.1683 6.44584 11.3283V7.72333H1.8025C0.845833 9.61333 0.297501 11.7367 0.297501 14C0.297501 16.2633 0.845833 18.3867 1.8025 20.2767L6.44584 16.6717Z" fill="#FBBC05"/>
<path d="M14.2975 5.54167C16.3625 5.54167 18.2058 6.25334 19.6642 7.64167L23.6542 3.65167C21.2392 1.38833 18.0775 0 14.2975 0C8.82583 0 4.10083 3.15 1.8025 7.72334L6.44583 11.3283C7.55417 8.00334 10.6458 5.54167 14.2975 5.54167Z" fill="#EA4335"/>
</svg>
