<svg width="373" height="120" viewBox="0 0 373 120" fill="none" xmlns="http://www.w3.org/2000/svg">
<path d="M280.014 32.5877C278.649 33.0711 275.72 34.9479 275.55 35.4313C275.493 35.6019 276.09 35.8863 276.886 36.0853C279.474 36.7393 282.431 39.4976 284.28 42.9953L285.161 44.6446H288.118H291.047L291.758 46.4076C293.038 49.5924 293.72 53.4882 293.891 58.3507L294.033 62.8436H291.047H288.062L287.692 64.0379C287.351 65.2038 285.502 69.0995 285.303 69.0995C285.275 69.0995 285.389 68.2465 285.588 67.1659C286.185 64.0379 286.355 59.5166 286.014 56.1611C284.82 44.4171 279.389 35.8294 273.133 35.8294C268.412 35.8294 264.517 39.4976 261.844 46.4645C261.104 48.3697 260.791 49.6209 259.938 53.6588C259.825 54.2559 259.91 54.3128 261.246 54.3128C262.583 54.3128 262.668 54.2559 263.066 53.346C263.692 51.8389 265.37 50.1896 266.564 49.8483C267.246 49.6493 268.81 49.5924 270.687 49.7062C274.213 49.9337 274.81 50.2464 276.062 52.4645C278.82 57.3839 278.052 66.3128 274.611 69.2133C273.417 70.2085 272.905 70.2938 269.095 70.1801L265.825 70.0948L264.801 69.0995C264.261 68.5592 263.521 67.5924 263.209 66.91C262.64 65.7156 262.583 65.6872 261.246 65.6872H259.853L260.024 66.7393C260.479 69.7251 261.645 73.4787 262.924 76.0664C265.569 81.4408 268.953 84.1706 272.962 84.1706C274.81 84.1706 274.981 84.2275 276.318 85.2796C279.246 87.5829 279.73 87.7251 286.327 87.8104C291.019 87.8957 292.583 87.8104 293.976 87.4692C298.64 86.2749 302.991 81.3839 305.436 74.5592C306.232 72.3128 307.284 67.8199 307.512 65.5166L307.654 64.0664L316.1 63.8673C320.735 63.782 326.848 63.5545 329.72 63.3839C332.592 63.2133 335.009 63.128 335.095 63.2417C335.322 63.4692 334.64 65.0047 334.1 65.4882C333.531 66 327.815 66.7393 322.242 67.0521L318.545 67.2512L318.63 68.3886C318.772 70.4645 320.109 74.8436 321.389 77.5735C323.663 82.3792 326.223 85.3649 329.464 86.9289L331.057 87.7251H337.739H344.422L346.299 86.8152C347.322 86.3033 348.602 85.5071 349.142 85.0237C349.938 84.3412 350.365 84.1706 351.531 84.1706C354.801 84.1706 357.815 82.7488 359.777 80.3033C360.261 79.7062 360.972 78.8531 361.37 78.3697C361.796 77.8863 362.45 76.8341 362.82 76.0664C363.701 74.3602 365.18 69.7536 365.464 67.9621C365.749 65.9716 365.863 65.7441 366.602 65.5735C367.057 65.4597 367.37 65.0616 367.654 64.2085L368.081 62.9858L370.242 62.9005C372.63 62.8152 372.63 62.8436 372.772 60.5687L372.858 59.2891L370.498 59.2038C368.365 59.1185 368.166 59.0616 368.024 58.4929C367.91 57.9242 367.626 55.9052 367.597 55.3934C367.597 55.0521 366.716 54.3128 366.318 54.3128C365.976 54.3128 365.948 55.0521 366.09 58.5782L366.261 62.8436H363.218C360.573 62.8436 360.175 62.9005 360.033 63.327C359.635 64.6351 358.355 67.5924 357.986 68.1043C357.588 68.6446 357.588 68.6446 357.73 67.9621C357.815 67.564 357.986 66.3981 358.071 65.3175L358.27 63.4123H354.886H351.474L351.133 64.6066C350.706 66 348.517 70.6066 348.374 70.436C348.289 70.3792 348.46 69.128 348.744 67.6493C349.313 64.3507 349.398 56.3318 348.858 53.0332C346.867 40.8341 341.095 32.5592 334.27 32.1896C330.687 31.9621 327.246 33.7251 324.517 37.1659C323.095 38.9289 320.791 43.4218 319.882 46.2085C319.142 48.4265 318.346 52.2938 318.545 52.6351C318.659 52.7773 319.597 52.891 320.649 52.891C322.583 52.891 330.545 53.6019 332.735 53.9716C333.673 54.1422 334.043 54.3981 334.697 55.3934C335.123 56.0474 335.607 57.1848 335.72 57.9242L335.919 59.2891L333.218 59.1185C331.711 59.0047 325.341 58.9194 319.057 58.891L307.597 58.8626V61.1374V63.3839L304.299 63.4692L301 63.5545L300.346 65.2607C299.635 67.1943 297.929 70.6351 297.787 70.4929C297.758 70.436 297.872 69.4692 298.1 68.3886C298.697 65.4313 298.924 58.3792 298.526 54.8531C297.645 46.6635 294.886 39.8673 290.791 35.7441C288.318 33.2417 286.355 32.3318 283.427 32.218C282.005 32.1611 280.867 32.2749 280.014 32.5877Z" fill="#61DCFB"/>
<path d="M288.886 32.8152C291.758 34.0095 294.261 36.4265 296.337 40.0095L297.502 42.0853H300.573C302.251 42.0853 303.616 42.0284 303.616 41.9716C303.616 41.5166 302.564 39.5545 301.739 38.4455C299.948 36.1137 299.152 35.3175 297.446 34.1517C295.341 32.7014 293.123 32.1327 289.825 32.1327H287.265L288.886 32.8152Z" fill="#61DCFB"/>
<path d="M339.218 32.673C342.175 33.8673 344.934 36.5687 347.01 40.2654L348.033 42.0853H351.275C353.066 42.0853 354.517 41.9716 354.517 41.8578C354.517 41.7156 354.09 40.9194 353.578 40.0663C352.1 37.6208 352.128 37.5924 353.777 39.327C354.63 40.2654 355.768 41.8294 356.28 42.8246L357.218 44.6445H360.005C361.512 44.6445 362.763 44.5877 362.763 44.5024C362.763 44.1611 361.512 41.9147 360.801 40.9479C359.976 39.8389 357.673 37.3934 357.389 37.3649C357.303 37.3649 356.592 37.0521 355.825 36.7109C354.943 36.2844 353.664 36 352.242 35.9147C350.507 35.7725 349.882 35.6019 349.341 35.1469C347.066 33.0711 345.161 32.4171 341.152 32.2464L337.882 32.1043L339.218 32.673Z" fill="#61DCFB"/>
<path d="M266.223 52.3791C265.626 52.6919 264.687 53.7441 264.659 54.0853C264.659 54.2275 265.114 54.3128 265.682 54.3128C266.223 54.3128 266.934 54.4265 267.218 54.5972C267.929 54.9953 268.896 56.7014 269.095 58.0379L269.294 59.1469H264.118C260.223 59.1469 258.943 59.2322 258.858 59.4882C258.801 59.6872 258.63 60.5403 258.488 61.3365L258.204 62.8436H263.436C266.877 62.8436 268.64 62.9573 268.64 63.128C268.64 63.7251 267.787 65.1185 267.246 65.4028C266.934 65.545 266.223 65.6872 265.682 65.6872C265.114 65.6872 264.659 65.7441 264.659 65.8294C264.659 66.3128 265.654 67.3934 266.337 67.6777C268.27 68.4739 270.09 66.0853 270.687 61.9905C271.256 58.2085 269.948 53.4313 268.1 52.4929C267.104 51.9526 266.962 51.9526 266.223 52.3791Z" fill="#61DCFB"/>
<path d="M21.7812 72.6562C21.7812 71.5521 21.2292 70.6875 20.125 70.0625C19.0417 69.4167 17.2917 68.8438 14.875 68.3438C6.83333 66.6562 2.8125 63.2396 2.8125 58.0938C2.8125 55.0938 4.05208 52.5938 6.53125 50.5938C9.03125 48.5729 12.2917 47.5625 16.3125 47.5625C20.6042 47.5625 24.0312 48.5729 26.5938 50.5938C29.1771 52.6146 30.4688 55.2396 30.4688 58.4688H21.4375C21.4375 57.1771 21.0208 56.1146 20.1875 55.2812C19.3542 54.4271 18.0521 54 16.2812 54C14.7604 54 13.5833 54.3438 12.75 55.0312C11.9167 55.7188 11.5 56.5938 11.5 57.6562C11.5 58.6562 11.9688 59.4688 12.9062 60.0938C13.8646 60.6979 15.4688 61.2292 17.7188 61.6875C19.9688 62.125 21.8646 62.625 23.4062 63.1875C28.1771 64.9375 30.5625 67.9688 30.5625 72.2812C30.5625 75.3646 29.2396 77.8646 26.5938 79.7812C23.9479 81.6771 20.5312 82.625 16.3438 82.625C13.5104 82.625 10.9896 82.125 8.78125 81.125C6.59375 80.1042 4.875 78.7188 3.625 76.9688C2.375 75.1979 1.75 73.2917 1.75 71.25H10.3125C10.3958 72.8542 10.9896 74.0833 12.0938 74.9375C13.1979 75.7917 14.6771 76.2188 16.5312 76.2188C18.2604 76.2188 19.5625 75.8958 20.4375 75.25C21.3333 74.5833 21.7812 73.7188 21.7812 72.6562ZM43.2987 51.875C45.6946 49 48.705 47.5625 52.33 47.5625C59.6633 47.5625 63.3821 51.8229 63.4862 60.3438V82H54.455V60.5938C54.455 58.6562 54.0383 57.2292 53.205 56.3125C52.3717 55.375 50.9862 54.9062 49.0487 54.9062C46.4029 54.9062 44.4862 55.9271 43.2987 57.9688V82H34.2675V34H43.2987V51.875ZM87.9725 82C87.5558 81.1875 87.2538 80.1771 87.0663 78.9688C84.8788 81.4062 82.035 82.625 78.535 82.625C75.2225 82.625 72.4725 81.6667 70.285 79.75C68.1183 77.8333 67.035 75.4167 67.035 72.5C67.035 68.9167 68.3579 66.1667 71.0038 64.25C73.6704 62.3333 77.5142 61.3646 82.535 61.3438H86.6913V59.4062C86.6913 57.8438 86.285 56.5938 85.4725 55.6562C84.6808 54.7188 83.4204 54.25 81.6913 54.25C80.1704 54.25 78.9725 54.6146 78.0975 55.3438C77.2433 56.0729 76.8163 57.0729 76.8163 58.3438H67.785C67.785 56.3854 68.3892 54.5729 69.5975 52.9062C70.8058 51.2396 72.5142 49.9375 74.7225 49C76.9308 48.0417 79.41 47.5625 82.16 47.5625C86.3267 47.5625 89.6288 48.6146 92.0663 50.7188C94.5246 52.8021 95.7538 55.7396 95.7538 59.5312V74.1875C95.7746 77.3958 96.2225 79.8229 97.0975 81.4688V82H87.9725ZM80.5038 75.7188C81.8371 75.7188 83.0663 75.4271 84.1913 74.8438C85.3163 74.2396 86.1496 73.4375 86.6913 72.4375V66.625H83.3163C78.7954 66.625 76.3892 68.1875 76.0975 71.3125L76.0663 71.8438C76.0663 72.9688 76.4621 73.8958 77.2538 74.625C78.0454 75.3542 79.1288 75.7188 80.5038 75.7188ZM131.209 65.4062C131.209 70.6146 130.021 74.7917 127.646 77.9375C125.292 81.0625 122.105 82.625 118.084 82.625C114.667 82.625 111.907 81.4375 109.802 79.0625V95H100.771V48.1875H109.146L109.459 51.5C111.646 48.875 114.5 47.5625 118.021 47.5625C122.188 47.5625 125.427 49.1042 127.74 52.1875C130.052 55.2708 131.209 59.5208 131.209 64.9375V65.4062ZM122.177 64.75C122.177 61.6042 121.615 59.1771 120.49 57.4688C119.386 55.7604 117.771 54.9062 115.646 54.9062C112.813 54.9062 110.865 55.9896 109.802 58.1562V72C110.907 74.2292 112.875 75.3438 115.709 75.3438C120.021 75.3438 122.177 71.8125 122.177 64.75ZM150.476 82.625C145.518 82.625 141.476 81.1042 138.351 78.0625C135.247 75.0208 133.695 70.9688 133.695 65.9062V65.0312C133.695 61.6354 134.351 58.6042 135.664 55.9375C136.976 53.25 138.83 51.1875 141.226 49.75C143.643 48.2917 146.393 47.5625 149.476 47.5625C154.101 47.5625 157.737 49.0208 160.383 51.9375C163.049 54.8542 164.383 58.9896 164.383 64.3438V68.0312H142.851C143.143 70.2396 144.018 72.0104 145.476 73.3438C146.955 74.6771 148.82 75.3438 151.07 75.3438C154.549 75.3438 157.268 74.0833 159.226 71.5625L163.664 76.5312C162.31 78.4479 160.476 79.9479 158.164 81.0312C155.851 82.0938 153.289 82.625 150.476 82.625ZM149.445 54.875C147.653 54.875 146.195 55.4792 145.07 56.6875C143.966 57.8958 143.258 59.625 142.945 61.875H155.508V61.1562C155.466 59.1562 154.924 57.6146 153.883 56.5312C152.841 55.4271 151.362 54.875 149.445 54.875Z" fill="white"/>
<path d="M168.087 77.5625C168.087 76.125 168.567 74.9583 169.525 74.0625C170.504 73.1667 171.723 72.7188 173.181 72.7188C174.66 72.7188 175.879 73.1667 176.837 74.0625C177.817 74.9583 178.306 76.125 178.306 77.5625C178.306 78.9792 177.827 80.1354 176.869 81.0312C175.91 81.9062 174.681 82.3438 173.181 82.3438C171.702 82.3438 170.483 81.9062 169.525 81.0312C168.567 80.1354 168.087 78.9792 168.087 77.5625ZM193.855 82H184.792V48.1875H193.855V82ZM184.261 39.4375C184.261 38.0833 184.709 36.9688 185.605 36.0938C186.522 35.2188 187.761 34.7812 189.324 34.7812C190.865 34.7812 192.095 35.2188 193.011 36.0938C193.928 36.9688 194.386 38.0833 194.386 39.4375C194.386 40.8125 193.917 41.9375 192.98 42.8125C192.063 43.6875 190.845 44.125 189.324 44.125C187.803 44.125 186.574 43.6875 185.636 42.8125C184.72 41.9375 184.261 40.8125 184.261 39.4375ZM210.216 39.875V48.1875H215.997V54.8125H210.216V71.6875C210.216 72.9375 210.456 73.8333 210.935 74.375C211.414 74.9167 212.331 75.1875 213.685 75.1875C214.685 75.1875 215.57 75.1146 216.341 74.9688V81.8125C214.57 82.3542 212.747 82.625 210.872 82.625C204.539 82.625 201.31 79.4271 201.185 73.0312V54.8125H196.247V48.1875H201.185V39.875H210.216Z" fill="#61DCFB"/>
</svg>
