<svg width="143" height="119" viewBox="0 0 143 119" fill="none" xmlns="http://www.w3.org/2000/svg">
<path d="M14.2939 102.868C14.2939 102.144 13.9316 101.576 13.207 101.166C12.4961 100.742 11.3477 100.366 9.76172 100.038C4.48437 98.9307 1.8457 96.6885 1.8457 93.3115C1.8457 91.3428 2.65918 89.7021 4.28613 88.3896C5.92676 87.0635 8.06641 86.4004 10.7051 86.4004C13.5215 86.4004 15.7705 87.0635 17.4521 88.3896C19.1475 89.7158 19.9951 91.4385 19.9951 93.5576H14.0684C14.0684 92.71 13.7949 92.0127 13.248 91.4658C12.7012 90.9053 11.8467 90.625 10.6846 90.625C9.68652 90.625 8.91406 90.8506 8.36719 91.3018C7.82031 91.7529 7.54688 92.3271 7.54688 93.0244C7.54688 93.6807 7.85449 94.2139 8.46973 94.624C9.09863 95.0205 10.1514 95.3691 11.6279 95.6699C13.1045 95.957 14.3486 96.2852 15.3604 96.6543C18.4912 97.8027 20.0566 99.792 20.0566 102.622C20.0566 104.646 19.1885 106.286 17.4521 107.544C15.7158 108.788 13.4736 109.41 10.7256 109.41C8.86621 109.41 7.21191 109.082 5.7627 108.426C4.32715 107.756 3.19922 106.847 2.37891 105.698C1.55859 104.536 1.14844 103.285 1.14844 101.945H6.76758C6.82227 102.998 7.21191 103.805 7.93652 104.365C8.66113 104.926 9.63184 105.206 10.8486 105.206C11.9834 105.206 12.8379 104.994 13.4121 104.57C14 104.133 14.2939 103.565 14.2939 102.868ZM28.4148 89.2305C29.9871 87.3438 31.9627 86.4004 34.3416 86.4004C39.1541 86.4004 41.5945 89.1963 41.6629 94.7881V109H35.7361V94.9521C35.7361 93.6807 35.4627 92.7441 34.9158 92.1426C34.3689 91.5273 33.4597 91.2197 32.1882 91.2197C30.4519 91.2197 29.1941 91.8896 28.4148 93.2295V109H22.488V77.5H28.4148V89.2305ZM57.732 109C57.4585 108.467 57.2603 107.804 57.1372 107.011C55.7017 108.61 53.8355 109.41 51.5386 109.41C49.3648 109.41 47.5601 108.781 46.1245 107.523C44.7027 106.266 43.9917 104.68 43.9917 102.766C43.9917 100.414 44.8599 98.6094 46.5962 97.3516C48.3462 96.0938 50.8687 95.458 54.1636 95.4443H56.8911V94.1729C56.8911 93.1475 56.6245 92.3271 56.0913 91.7119C55.5718 91.0967 54.7446 90.7891 53.6099 90.7891C52.6118 90.7891 51.8257 91.0283 51.2515 91.5068C50.6909 91.9854 50.4107 92.6416 50.4107 93.4756H44.4839C44.4839 92.1904 44.8804 91.001 45.6734 89.9072C46.4663 88.8135 47.5874 87.959 49.0366 87.3438C50.4859 86.7148 52.1128 86.4004 53.9175 86.4004C56.6519 86.4004 58.8189 87.0908 60.4185 88.4717C62.0318 89.8389 62.8384 91.7666 62.8384 94.2549V103.873C62.8521 105.979 63.146 107.571 63.7202 108.651V109H57.732ZM52.8306 104.878C53.7056 104.878 54.5122 104.687 55.2505 104.304C55.9888 103.907 56.5357 103.381 56.8911 102.725V98.9102H54.6763C51.7095 98.9102 50.1304 99.9355 49.939 101.986L49.9185 102.335C49.9185 103.073 50.1782 103.682 50.6978 104.16C51.2173 104.639 51.9282 104.878 52.8306 104.878ZM86.1057 98.1104C86.1057 101.528 85.3264 104.27 83.7679 106.334C82.2229 108.385 80.1311 109.41 77.4925 109.41C75.2503 109.41 73.4388 108.631 72.0579 107.072V117.531H66.1311V86.8105H71.6272L71.8323 88.9844C73.2679 87.2617 75.1409 86.4004 77.4514 86.4004C80.1858 86.4004 82.3118 87.4121 83.8294 89.4355C85.347 91.459 86.1057 94.248 86.1057 97.8027V98.1104ZM80.179 97.6797C80.179 95.6152 79.8098 94.0225 79.0716 92.9014C78.347 91.7803 77.2874 91.2197 75.8929 91.2197C74.0335 91.2197 72.7552 91.9307 72.0579 93.3525V102.438C72.7825 103.9 74.0745 104.632 75.9339 104.632C78.7639 104.632 80.179 102.314 80.179 97.6797ZM98.75 109.41C95.4961 109.41 92.8438 108.412 90.793 106.416C88.7559 104.42 87.7373 101.761 87.7373 98.4385V97.8643C87.7373 95.6357 88.168 93.6465 89.0293 91.8965C89.8907 90.1328 91.1075 88.7793 92.6797 87.8359C94.2657 86.8789 96.0704 86.4004 98.0938 86.4004C101.129 86.4004 103.515 87.3574 105.251 89.2715C107.001 91.1855 107.876 93.8994 107.876 97.4131V99.833H93.7461C93.9375 101.282 94.5118 102.444 95.4688 103.319C96.4395 104.194 97.6631 104.632 99.1397 104.632C101.423 104.632 103.207 103.805 104.492 102.15L107.404 105.411C106.516 106.669 105.313 107.653 103.795 108.364C102.277 109.062 100.596 109.41 98.75 109.41ZM98.0733 91.1992C96.8975 91.1992 95.9405 91.5957 95.2022 92.3887C94.4776 93.1816 94.0127 94.3164 93.8077 95.793H102.052V95.3213C102.024 94.0088 101.669 92.9971 100.985 92.2861C100.302 91.5615 99.3311 91.1992 98.0733 91.1992Z" fill="white"/>
<path d="M110.307 106.088C110.307 105.145 110.622 104.379 111.251 103.791C111.893 103.203 112.693 102.909 113.65 102.909C114.621 102.909 115.421 103.203 116.05 103.791C116.692 104.379 117.013 105.145 117.013 106.088C117.013 107.018 116.699 107.776 116.07 108.364C115.441 108.938 114.635 109.226 113.65 109.226C112.679 109.226 111.88 108.938 111.251 108.364C110.622 107.776 110.307 107.018 110.307 106.088ZM127.217 109H121.27V86.8105H127.217V109ZM120.921 81.0684C120.921 80.1797 121.215 79.4482 121.803 78.874C122.405 78.2998 123.218 78.0127 124.244 78.0127C125.255 78.0127 126.062 78.2998 126.664 78.874C127.265 79.4482 127.566 80.1797 127.566 81.0684C127.566 81.9707 127.258 82.709 126.643 83.2832C126.042 83.8574 125.242 84.1445 124.244 84.1445C123.246 84.1445 122.439 83.8574 121.824 83.2832C121.222 82.709 120.921 81.9707 120.921 81.0684ZM137.954 81.3555V86.8105H141.748V91.1582H137.954V102.232C137.954 103.053 138.112 103.641 138.426 103.996C138.741 104.352 139.342 104.529 140.231 104.529C140.887 104.529 141.468 104.481 141.974 104.386V108.877C140.812 109.232 139.616 109.41 138.385 109.41C134.229 109.41 132.11 107.312 132.028 103.114V91.1582H128.787V86.8105H132.028V81.3555H137.954Z" fill="#61DCFB"/>
<path d="M18.0095 21.7251C17.0995 22.0474 15.1469 23.2986 15.0332 23.6209C14.9953 23.7346 15.3934 23.9242 15.9242 24.0569C17.6493 24.4929 19.6209 26.3318 20.8531 28.6635L21.4408 29.763H23.4123H25.3649L25.8389 30.9384C26.6919 33.0616 27.1469 35.6588 27.2607 38.9005L27.3555 41.8957H25.3649H23.3744L23.128 42.692C22.9005 43.4692 21.6683 46.0664 21.5356 46.0664C21.5166 46.0664 21.5924 45.4976 21.7251 44.7773C22.1232 42.692 22.237 39.6777 22.0095 37.4408C21.2133 29.6114 17.5924 23.8863 13.4218 23.8863C10.2749 23.8863 7.67773 26.3318 5.89574 30.9763C5.40285 32.2465 5.19432 33.0806 4.6256 35.7725C4.54977 36.1706 4.60664 36.2085 5.49764 36.2085C6.38863 36.2085 6.4455 36.1706 6.71091 35.564C7.12797 34.5593 8.24645 33.4597 9.04266 33.2322C9.49764 33.0995 10.5403 33.0616 11.7915 33.1374C14.1422 33.2891 14.5403 33.4976 15.3744 34.9763C17.2133 38.2559 16.7014 44.2085 14.4076 46.1422C13.6114 46.8057 13.2701 46.8626 10.7299 46.7867L8.54977 46.7299L7.8673 46.0664C7.50711 45.7062 7.01422 45.0616 6.80569 44.6066C6.42655 43.8104 6.38863 43.7915 5.49764 43.7915H4.56873L4.68247 44.4929C4.98579 46.4834 5.76304 48.9858 6.61612 50.7109C8.37915 54.2938 10.6351 56.1138 13.3081 56.1138C14.5403 56.1138 14.654 56.1517 15.545 56.8531C17.4976 58.3886 17.8199 58.4834 22.218 58.5403C25.346 58.5972 26.3886 58.5403 27.3175 58.3128C30.4265 57.5166 33.327 54.2559 34.9574 49.7062C35.4882 48.2085 36.1896 45.2133 36.3412 43.6777L36.436 42.7109L42.0664 42.5782C45.1564 42.5213 49.2322 42.3697 51.1469 42.2559C53.0616 42.1422 54.673 42.0853 54.7299 42.1611C54.8815 42.3128 54.4265 43.3365 54.0664 43.6588C53.6872 44 49.8768 44.4929 46.1611 44.7014L43.6967 44.8341L43.7536 45.5924C43.8483 46.9763 44.7393 49.8957 45.5924 51.7156C47.109 54.9194 48.8152 56.91 50.9763 57.9526L52.0379 58.4834H56.4929H60.9479L62.1991 57.8768C62.8815 57.5356 63.7346 57.0047 64.0948 56.6825C64.6256 56.2275 64.91 56.1138 65.6872 56.1138C67.8673 56.1138 69.8768 55.1659 71.1848 53.5356C71.5071 53.1375 71.9811 52.5687 72.2465 52.2465C72.5308 51.9242 72.9668 51.2228 73.2133 50.7109C73.801 49.5735 74.7867 46.5024 74.9763 45.3081C75.1659 43.9811 75.2417 43.8294 75.7346 43.7156C76.0379 43.6398 76.2465 43.3744 76.436 42.8057L76.7204 41.9905L78.1611 41.9337C79.7536 41.8768 79.7536 41.8957 79.8483 40.3792L79.9052 39.5261L78.3318 39.4692C76.91 39.4123 76.7773 39.3744 76.6825 38.9953C76.6066 38.6161 76.4171 37.2702 76.3981 36.9289C76.3981 36.7014 75.8104 36.2085 75.545 36.2085C75.3175 36.2085 75.2986 36.7014 75.3934 39.0521L75.5071 41.8957H73.4787C71.7156 41.8957 71.4502 41.9337 71.3555 42.218C71.0901 43.0901 70.237 45.0616 69.9905 45.4029C69.7251 45.763 69.7251 45.763 69.8199 45.3081C69.8768 45.0427 69.9905 44.2654 70.0474 43.545L70.1801 42.2749H67.9242H65.6493L65.4218 43.0711C65.1374 44 63.6777 47.0711 63.5829 46.9574C63.5261 46.9194 63.6398 46.0853 63.8294 45.0995C64.2085 42.9005 64.2654 37.5545 63.9052 35.3555C62.5782 27.2228 58.7299 21.7062 54.1801 21.4597C51.7915 21.3081 49.4976 22.4834 47.6777 24.7773C46.7299 25.9526 45.1943 28.9479 44.5877 30.8057C44.0948 32.2844 43.564 34.8626 43.6967 35.0901C43.7725 35.1848 44.3981 35.2607 45.0995 35.2607C46.3886 35.2607 51.6967 35.7346 53.1564 35.9811C53.782 36.0948 54.0284 36.2654 54.4645 36.9289C54.7488 37.3649 55.0711 38.1232 55.1469 38.6161L55.2796 39.5261L53.4787 39.4123C52.4739 39.3365 48.2275 39.2796 44.0379 39.2607L36.3981 39.2417V40.7583V42.2559L34.1991 42.3128L32 42.3697L31.564 43.5071C31.0901 44.7962 29.9526 47.0901 29.8578 46.9953C29.8389 46.9574 29.9147 46.3128 30.0664 45.5924C30.4645 43.6209 30.6161 38.9194 30.3507 36.5687C29.763 31.109 27.9242 26.5782 25.1943 23.8294C23.545 22.1611 22.237 21.5545 20.2844 21.4787C19.3365 21.4408 18.5782 21.5166 18.0095 21.7251Z" fill="#61DCFB"/>
<path d="M23.9242 21.8768C25.8389 22.673 27.5071 24.2843 28.891 26.673L29.6683 28.0569H31.7157C32.8342 28.0569 33.7441 28.0189 33.7441 27.981C33.7441 27.6777 33.0427 26.3697 32.4929 25.6303C31.2986 24.0758 30.7678 23.545 29.6304 22.7678C28.2275 21.8009 26.7488 21.4218 24.5498 21.4218H22.8436L23.9242 21.8768Z" fill="#61DCFB"/>
<path d="M57.4787 21.782C59.4503 22.5782 61.2891 24.3791 62.673 26.8436L63.3555 28.0569H65.5166C66.7109 28.0569 67.6777 27.981 67.6777 27.9052C67.6777 27.8104 67.3934 27.2796 67.0522 26.7109C66.0664 25.0806 66.0853 25.0616 67.1849 26.218C67.7536 26.8436 68.5119 27.8863 68.8531 28.5498L69.4787 29.763H71.3365C72.3413 29.763 73.1754 29.7251 73.1754 29.6682C73.1754 29.4408 72.3413 27.9431 71.8673 27.2986C71.3176 26.5592 69.782 24.9289 69.5924 24.91C69.5356 24.91 69.0616 24.7014 68.5498 24.4739C67.9621 24.1896 67.109 24 66.1612 23.9431C65.0048 23.8483 64.5877 23.7346 64.2275 23.4313C62.7109 22.0474 61.4408 21.6114 58.7678 21.4976L56.5877 21.4028L57.4787 21.782Z" fill="#61DCFB"/>
<path d="M8.81518 34.9194C8.41708 35.128 7.79148 35.8294 7.77253 36.0569C7.77253 36.1517 8.07584 36.2085 8.45499 36.2085C8.81518 36.2085 9.28911 36.2844 9.47869 36.3981C9.95262 36.6635 10.5972 37.801 10.7299 38.692L10.8626 39.4313H7.41234C4.81518 39.4313 3.9621 39.4882 3.90523 39.6588C3.86731 39.7915 3.75357 40.3602 3.65878 40.891L3.46921 41.8957H6.95736C9.2512 41.8957 10.4266 41.9716 10.4266 42.0853C10.4266 42.4834 9.85783 43.4123 9.49764 43.6019C9.28911 43.6967 8.81518 43.7915 8.45499 43.7915C8.07584 43.7915 7.77253 43.8294 7.77253 43.8863C7.77253 44.2085 8.43603 44.9289 8.89101 45.1185C10.1801 45.6493 11.3934 44.0569 11.7915 41.327C12.1706 38.8057 11.2986 35.6209 10.0664 34.9953C9.40286 34.6351 9.30807 34.6351 8.81518 34.9194Z" fill="#61DCFB"/>
</svg>
