<svg width="512" height="249" viewBox="0 0 512 249" fill="none" xmlns="http://www.w3.org/2000/svg">
<g opacity="0.05">
<path d="M97.3968 2.2595C91.3015 4.41823 78.2222 12.7992 77.4602 14.9579C77.2063 15.7198 79.8729 16.9897 83.4285 17.8785C94.9841 20.7992 108.19 33.1166 116.444 48.7357L120.381 56.1008H133.587H146.667L149.841 63.9738C155.556 78.196 158.603 95.5928 159.365 117.307L160 137.371H146.667H133.333L131.682 142.704C130.159 147.91 121.905 165.307 121.016 165.307C120.889 165.307 121.397 161.498 122.286 156.672C124.952 142.704 125.714 122.513 124.19 107.529C118.857 55.0849 94.6031 16.7357 66.6666 16.7357C45.5872 16.7357 28.1904 33.1166 16.2539 64.2277C12.9523 72.7357 11.5555 78.323 7.74594 96.3547C7.23801 99.0214 7.61896 99.2753 13.5872 99.2753C19.5555 99.2753 19.9364 99.0214 21.7142 94.9579C24.5079 88.2277 31.9999 80.8626 37.3333 79.3388C40.3809 78.45 47.365 78.196 55.746 78.7039C71.492 79.7198 74.1587 81.1166 79.746 91.0214C92.0634 112.99 88.6349 152.863 73.2698 165.815C67.9364 170.259 65.6507 170.64 48.6348 170.132L34.0317 169.752L29.4602 165.307C27.0475 162.894 23.7459 158.577 22.3491 155.529C19.8094 150.196 19.5555 150.069 13.5872 150.069H7.36499L8.1269 154.767C10.1586 168.101 15.365 184.863 21.0793 196.418C32.8888 220.418 47.9999 232.609 65.9047 232.609C74.1587 232.609 74.9206 232.863 80.8888 237.561C93.9682 247.847 96.1269 248.482 125.587 248.863C146.54 249.244 153.524 248.863 159.746 247.339C180.571 242.005 200 220.164 210.921 189.688C214.476 179.656 219.175 159.593 220.19 149.307L220.825 142.831L258.54 141.942C279.238 141.561 306.54 140.545 319.365 139.783C332.19 139.021 342.984 138.64 343.365 139.148C344.381 140.164 341.333 147.021 338.921 149.18C336.381 151.466 310.857 154.767 285.968 156.164L269.46 157.053L269.841 162.132C270.476 171.402 276.444 190.958 282.159 203.148C292.317 224.609 303.746 237.942 318.222 244.926L325.333 248.482H355.175H385.016L393.397 244.418C397.968 242.132 403.683 238.577 406.095 236.418C409.651 233.371 411.556 232.609 416.762 232.609C431.365 232.609 444.825 226.259 453.587 215.339C455.746 212.672 458.921 208.863 460.698 206.704C462.603 204.545 465.524 199.847 467.175 196.418C471.111 188.799 477.714 168.228 478.984 160.228C480.254 151.339 480.762 150.323 484.064 149.561C486.095 149.053 487.492 147.275 488.762 143.466L490.667 138.005L500.318 137.625C510.984 137.244 510.984 137.371 511.619 127.212L512 121.498L501.46 121.117C491.937 120.736 491.048 120.482 490.413 117.942C489.905 115.402 488.635 106.386 488.508 104.101C488.508 102.577 484.571 99.2753 482.794 99.2753C481.27 99.2753 481.143 102.577 481.778 118.323L482.54 137.371H468.952C457.143 137.371 455.365 137.625 454.73 139.529C452.952 145.371 447.238 158.577 445.587 160.863C443.81 163.275 443.81 163.275 444.444 160.228C444.825 158.45 445.587 153.244 445.968 148.418L446.857 139.91H431.746H416.508L414.984 145.244C413.079 151.466 403.302 172.037 402.667 171.275C402.286 171.021 403.048 165.434 404.317 158.831C406.857 144.101 407.238 108.291 404.825 93.5611C395.937 39.0849 370.159 2.13251 339.683 0.48172C323.683 -0.534153 308.317 7.33886 296.127 22.7039C289.778 30.5769 279.492 50.6404 275.429 63.0849C272.127 72.9896 268.571 90.2595 269.46 91.7833C269.968 92.4182 274.159 92.9261 278.857 92.9261C287.492 92.9261 323.048 96.1007 332.825 97.7515C337.016 98.5134 338.667 99.6563 341.587 104.101C343.492 107.021 345.651 112.101 346.159 115.402L347.048 121.498L334.984 120.736C328.254 120.228 299.81 119.847 271.746 119.72L220.571 119.593V129.752V139.783L205.841 140.164L191.111 140.545L188.19 148.164C185.016 156.799 177.397 172.164 176.762 171.529C176.635 171.275 177.143 166.958 178.159 162.132C180.825 148.926 181.841 117.434 180.063 101.688C176.127 65.1166 163.809 34.7674 145.524 16.3547C134.476 5.18013 125.714 1.11664 112.635 0.608704C106.286 0.354736 101.206 0.862672 97.3968 2.2595Z" fill="#E1E1E6"/>
<path d="M137.016 3.2753C149.841 8.60863 161.016 19.4023 170.286 35.4023L175.492 44.6721H189.206C196.698 44.6721 202.794 44.4182 202.794 44.1642C202.794 42.1324 198.095 33.3705 194.413 28.4182C186.413 18.0055 182.857 14.4499 175.238 9.24355C165.841 2.76736 155.937 0.227677 141.206 0.227677H129.778L137.016 3.2753Z" fill="#E1E1E6"/>
<path d="M361.778 2.6404C374.984 7.97373 387.302 20.0372 396.571 36.5452L401.143 44.6721H415.619C423.619 44.6721 430.095 44.1642 430.095 43.6563C430.095 43.0213 428.19 39.4658 425.905 35.6563C419.302 24.7356 419.429 24.6087 426.794 32.3547C430.603 36.5452 435.683 43.5293 437.968 47.9737L442.159 56.1007H454.603C461.333 56.1007 466.921 55.8467 466.921 55.4658C466.921 53.942 461.333 43.9102 458.159 39.5928C454.476 34.6404 444.19 23.7198 442.921 23.5928C442.54 23.5928 439.365 22.196 435.937 20.6721C432 18.7674 426.286 17.4975 419.937 17.1166C412.19 16.4817 409.397 15.7198 406.984 13.688C396.825 4.41818 388.317 1.49754 370.413 0.735638L355.81 0.100718L361.778 2.6404Z" fill="#E1E1E6"/>
<path d="M35.8095 90.6406C33.1429 92.0374 28.9524 96.7359 28.8254 98.2597C28.8254 98.8946 30.8571 99.2755 33.3968 99.2755C35.8095 99.2755 38.9841 99.7835 40.254 100.545C43.4286 102.323 47.746 109.942 48.6349 115.91L49.5238 120.863H26.4127C9.01587 120.863 3.30159 121.244 2.92063 122.387C2.66667 123.276 1.90476 127.085 1.26984 130.641L0 137.371H23.3651C38.7302 137.371 46.6032 137.879 46.6032 138.641C46.6032 141.307 42.7936 147.53 40.3809 148.799C38.9841 149.434 35.8095 150.069 33.3968 150.069C30.8571 150.069 28.8254 150.323 28.8254 150.704C28.8254 152.863 33.2698 157.688 36.3175 158.958C44.9524 162.514 53.0794 151.847 55.746 133.561C58.2857 116.672 52.4444 95.339 44.1905 91.1486C39.746 88.7359 39.1111 88.7359 35.8095 90.6406Z" fill="#E1E1E6"/>
</g>
<path d="M107.672 139.984C107.672 138.328 106.844 137.031 105.188 136.094C103.562 135.125 100.938 134.266 97.3125 133.516C85.25 130.984 79.2188 125.859 79.2188 118.141C79.2188 113.641 81.0781 109.891 84.7969 106.891C88.5469 103.859 93.4375 102.344 99.4688 102.344C105.906 102.344 111.047 103.859 114.891 106.891C118.766 109.922 120.703 113.859 120.703 118.703H107.156C107.156 116.766 106.531 115.172 105.281 113.922C104.031 112.641 102.078 112 99.4219 112C97.1406 112 95.375 112.516 94.125 113.547C92.875 114.578 92.25 115.891 92.25 117.484C92.25 118.984 92.9531 120.203 94.3594 121.141C95.7969 122.047 98.2031 122.844 101.578 123.531C104.953 124.188 107.797 124.938 110.109 125.781C117.266 128.406 120.844 132.953 120.844 139.422C120.844 144.047 118.859 147.797 114.891 150.672C110.922 153.516 105.797 154.938 99.5156 154.938C95.2656 154.938 91.4844 154.188 88.1719 152.688C84.8906 151.156 82.3125 149.078 80.4375 146.453C78.5625 143.797 77.625 140.938 77.625 137.875H90.4688C90.5938 140.281 91.4844 142.125 93.1406 143.406C94.7969 144.688 97.0156 145.328 99.7969 145.328C102.391 145.328 104.344 144.844 105.656 143.875C107 142.875 107.672 141.578 107.672 139.984ZM142.828 108.812C146.422 104.5 150.938 102.344 156.375 102.344C167.375 102.344 172.953 108.734 173.109 121.516V154H159.562V121.891C159.562 118.984 158.938 116.844 157.688 115.469C156.438 114.062 154.359 113.359 151.453 113.359C147.484 113.359 144.609 114.891 142.828 117.953V154H129.281V82H142.828V108.812ZM212.719 154C212.094 152.781 211.641 151.266 211.359 149.453C208.078 153.109 203.812 154.938 198.562 154.938C193.594 154.938 189.469 153.5 186.188 150.625C182.938 147.75 181.312 144.125 181.312 139.75C181.312 134.375 183.297 130.25 187.266 127.375C191.266 124.5 197.031 123.047 204.562 123.016H210.797V120.109C210.797 117.766 210.188 115.891 208.969 114.484C207.781 113.078 205.891 112.375 203.297 112.375C201.016 112.375 199.219 112.922 197.906 114.016C196.625 115.109 195.984 116.609 195.984 118.516H182.438C182.438 115.578 183.344 112.859 185.156 110.359C186.969 107.859 189.531 105.906 192.844 104.5C196.156 103.062 199.875 102.344 204 102.344C210.25 102.344 215.203 103.922 218.859 107.078C222.547 110.203 224.391 114.609 224.391 120.297V142.281C224.422 147.094 225.094 150.734 226.406 153.203V154H212.719ZM201.516 144.578C203.516 144.578 205.359 144.141 207.047 143.266C208.734 142.359 209.984 141.156 210.797 139.656V130.938H205.734C198.953 130.938 195.344 133.281 194.906 137.969L194.859 138.766C194.859 140.453 195.453 141.844 196.641 142.938C197.828 144.031 199.453 144.578 201.516 144.578ZM280.453 129.109C280.453 136.922 278.672 143.188 275.109 147.906C271.578 152.594 266.797 154.938 260.766 154.938C255.641 154.938 251.5 153.156 248.344 149.594V173.5H234.797V103.281H247.359L247.828 108.25C251.109 104.312 255.391 102.344 260.672 102.344C266.922 102.344 271.781 104.656 275.25 109.281C278.719 113.906 280.453 120.281 280.453 128.406V129.109ZM266.906 128.125C266.906 123.406 266.062 119.766 264.375 117.203C262.719 114.641 260.297 113.359 257.109 113.359C252.859 113.359 249.938 114.984 248.344 118.234V139C250 142.344 252.953 144.016 257.203 144.016C263.672 144.016 266.906 138.719 266.906 128.125ZM312.234 154.938C304.797 154.938 298.734 152.656 294.047 148.094C289.391 143.531 287.062 137.453 287.062 129.859V128.547C287.062 123.453 288.047 118.906 290.016 114.906C291.984 110.875 294.766 107.781 298.359 105.625C301.984 103.438 306.109 102.344 310.734 102.344C317.672 102.344 323.125 104.531 327.094 108.906C331.094 113.281 333.094 119.484 333.094 127.516V133.047H300.797C301.234 136.359 302.547 139.016 304.734 141.016C306.953 143.016 309.75 144.016 313.125 144.016C318.344 144.016 322.422 142.125 325.359 138.344L332.016 145.797C329.984 148.672 327.234 150.922 323.766 152.547C320.297 154.141 316.453 154.938 312.234 154.938ZM310.688 113.312C308 113.312 305.812 114.219 304.125 116.031C302.469 117.844 301.406 120.438 300.938 123.812H319.781V122.734C319.719 119.734 318.906 117.422 317.344 115.797C315.781 114.141 313.562 113.312 310.688 113.312Z" fill="#E1E1E6"/>
<path d="M341.531 147.344C341.531 145.188 342.25 143.438 343.688 142.094C345.156 140.75 346.984 140.078 349.172 140.078C351.391 140.078 353.219 140.75 354.656 142.094C356.125 143.438 356.859 145.188 356.859 147.344C356.859 149.469 356.141 151.203 354.703 152.547C353.266 153.859 351.422 154.516 349.172 154.516C346.953 154.516 345.125 153.859 343.688 152.547C342.25 151.203 341.531 149.469 341.531 147.344ZM383.062 154H369.469V103.281H383.062V154ZM368.672 90.1562C368.672 88.125 369.344 86.4531 370.688 85.1406C372.062 83.8281 373.922 83.1719 376.266 83.1719C378.578 83.1719 380.422 83.8281 381.797 85.1406C383.172 86.4531 383.859 88.125 383.859 90.1562C383.859 92.2188 383.156 93.9062 381.75 95.2188C380.375 96.5312 378.547 97.1875 376.266 97.1875C373.984 97.1875 372.141 96.5312 370.734 95.2188C369.359 93.9062 368.672 92.2188 368.672 90.1562ZM410.484 90.8125V103.281H419.156V113.219H410.484V138.531C410.484 140.406 410.844 141.75 411.562 142.562C412.281 143.375 413.656 143.781 415.688 143.781C417.188 143.781 418.516 143.672 419.672 143.453V153.719C417.016 154.531 414.281 154.938 411.469 154.938C401.969 154.938 397.125 150.141 396.938 140.547V113.219H389.531V103.281H396.938V90.8125H410.484Z" fill="#61DCFB"/>
</svg>
