<svg width="602" height="119" viewBox="0 0 602 119" fill="none" xmlns="http://www.w3.org/2000/svg">
<path d="M270.672 74.9844C270.672 73.3281 269.844 72.0312 268.188 71.0938C266.562 70.125 263.938 69.2656 260.312 68.5156C248.25 65.9844 242.219 60.8594 242.219 53.1406C242.219 48.6406 244.078 44.8906 247.797 41.8906C251.547 38.8594 256.438 37.3438 262.469 37.3438C268.906 37.3438 274.047 38.8594 277.891 41.8906C281.766 44.9219 283.703 48.8594 283.703 53.7031H270.156C270.156 51.7656 269.531 50.1719 268.281 48.9219C267.031 47.6406 265.078 47 262.422 47C260.141 47 258.375 47.5156 257.125 48.5469C255.875 49.5781 255.25 50.8906 255.25 52.4844C255.25 53.9844 255.953 55.2031 257.359 56.1406C258.797 57.0469 261.203 57.8438 264.578 58.5312C267.953 59.1875 270.797 59.9375 273.109 60.7812C280.266 63.4062 283.844 67.9531 283.844 74.4219C283.844 79.0469 281.859 82.7969 277.891 85.6719C273.922 88.5156 268.797 89.9375 262.516 89.9375C258.266 89.9375 254.484 89.1875 251.172 87.6875C247.891 86.1562 245.312 84.0781 243.438 81.4531C241.562 78.7969 240.625 75.9375 240.625 72.875H253.469C253.594 75.2812 254.484 77.125 256.141 78.4062C257.797 79.6875 260.016 80.3281 262.797 80.3281C265.391 80.3281 267.344 79.8438 268.656 78.875C270 77.875 270.672 76.5781 270.672 74.9844ZM305.828 43.8125C309.422 39.5 313.938 37.3438 319.375 37.3438C330.375 37.3438 335.953 43.7344 336.109 56.5156V89H322.562V56.8906C322.562 53.9844 321.938 51.8438 320.688 50.4688C319.438 49.0625 317.359 48.3594 314.453 48.3594C310.484 48.3594 307.609 49.8906 305.828 52.9531V89H292.281V17H305.828V43.8125ZM375.719 89C375.094 87.7812 374.641 86.2656 374.359 84.4531C371.078 88.1094 366.812 89.9375 361.562 89.9375C356.594 89.9375 352.469 88.5 349.188 85.625C345.938 82.75 344.312 79.125 344.312 74.75C344.312 69.375 346.297 65.25 350.266 62.375C354.266 59.5 360.031 58.0469 367.562 58.0156H373.797V55.1094C373.797 52.7656 373.188 50.8906 371.969 49.4844C370.781 48.0781 368.891 47.375 366.297 47.375C364.016 47.375 362.219 47.9219 360.906 49.0156C359.625 50.1094 358.984 51.6094 358.984 53.5156H345.438C345.438 50.5781 346.344 47.8594 348.156 45.3594C349.969 42.8594 352.531 40.9062 355.844 39.5C359.156 38.0625 362.875 37.3438 367 37.3438C373.25 37.3438 378.203 38.9219 381.859 42.0781C385.547 45.2031 387.391 49.6094 387.391 55.2969V77.2812C387.422 82.0938 388.094 85.7344 389.406 88.2031V89H375.719ZM364.516 79.5781C366.516 79.5781 368.359 79.1406 370.047 78.2656C371.734 77.3594 372.984 76.1562 373.797 74.6562V65.9375H368.734C361.953 65.9375 358.344 68.2812 357.906 72.9688L357.859 73.7656C357.859 75.4531 358.453 76.8438 359.641 77.9375C360.828 79.0312 362.453 79.5781 364.516 79.5781ZM443.453 64.1094C443.453 71.9219 441.672 78.1875 438.109 82.9062C434.578 87.5938 429.797 89.9375 423.766 89.9375C418.641 89.9375 414.5 88.1562 411.344 84.5938V108.5H397.797V38.2812H410.359L410.828 43.25C414.109 39.3125 418.391 37.3438 423.672 37.3438C429.922 37.3438 434.781 39.6562 438.25 44.2812C441.719 48.9062 443.453 55.2812 443.453 63.4062V64.1094ZM429.906 63.125C429.906 58.4062 429.062 54.7656 427.375 52.2031C425.719 49.6406 423.297 48.3594 420.109 48.3594C415.859 48.3594 412.938 49.9844 411.344 53.2344V74C413 77.3438 415.953 79.0156 420.203 79.0156C426.672 79.0156 429.906 73.7188 429.906 63.125ZM475.234 89.9375C467.797 89.9375 461.734 87.6562 457.047 83.0938C452.391 78.5312 450.062 72.4531 450.062 64.8594V63.5469C450.062 58.4531 451.047 53.9062 453.016 49.9062C454.984 45.875 457.766 42.7812 461.359 40.625C464.984 38.4375 469.109 37.3438 473.734 37.3438C480.672 37.3438 486.125 39.5312 490.094 43.9062C494.094 48.2812 496.094 54.4844 496.094 62.5156V68.0469H463.797C464.234 71.3594 465.547 74.0156 467.734 76.0156C469.953 78.0156 472.75 79.0156 476.125 79.0156C481.344 79.0156 485.422 77.125 488.359 73.3438L495.016 80.7969C492.984 83.6719 490.234 85.9219 486.766 87.5469C483.297 89.1406 479.453 89.9375 475.234 89.9375ZM473.688 48.3125C471 48.3125 468.812 49.2188 467.125 51.0312C465.469 52.8438 464.406 55.4375 463.938 58.8125H482.781V57.7344C482.719 54.7344 481.906 52.4219 480.344 50.7969C478.781 49.1406 476.562 48.3125 473.688 48.3125Z" fill="#E1E1E6"/>
<path d="M504.531 82.3438C504.531 80.1875 505.25 78.4375 506.688 77.0938C508.156 75.75 509.984 75.0781 512.172 75.0781C514.391 75.0781 516.219 75.75 517.656 77.0938C519.125 78.4375 519.859 80.1875 519.859 82.3438C519.859 84.4688 519.141 86.2031 517.703 87.5469C516.266 88.8594 514.422 89.5156 512.172 89.5156C509.953 89.5156 508.125 88.8594 506.688 87.5469C505.25 86.2031 504.531 84.4688 504.531 82.3438ZM546.062 89H532.469V38.2812H546.062V89ZM531.672 25.1562C531.672 23.125 532.344 21.4531 533.688 20.1406C535.062 18.8281 536.922 18.1719 539.266 18.1719C541.578 18.1719 543.422 18.8281 544.797 20.1406C546.172 21.4531 546.859 23.125 546.859 25.1562C546.859 27.2188 546.156 28.9062 544.75 30.2188C543.375 31.5312 541.547 32.1875 539.266 32.1875C536.984 32.1875 535.141 31.5312 533.734 30.2188C532.359 28.9062 531.672 27.2188 531.672 25.1562ZM573.484 25.8125V38.2812H582.156V48.2188H573.484V73.5312C573.484 75.4062 573.844 76.75 574.562 77.5625C575.281 78.375 576.656 78.7812 578.688 78.7812C580.188 78.7812 581.516 78.6719 582.672 78.4531V88.7188C580.016 89.5312 577.281 89.9375 574.469 89.9375C564.969 89.9375 560.125 85.1406 559.938 75.5469V48.2188H552.531V38.2812H559.938V25.8125H573.484Z" fill="#61DCFB"/>
<path d="M39.1311 9.86722C36.6822 10.7345 31.4273 14.1017 31.1212 14.969C31.0192 15.2752 32.0906 15.7853 33.5191 16.1425C38.1617 17.3159 43.4676 22.2647 46.7838 28.5399L48.3654 31.499H53.6713H58.9262L60.2016 34.6621C62.4975 40.3762 63.7219 47.3657 64.028 56.0898L64.2831 64.1507H58.9262H53.5693L52.906 66.2934C52.2938 68.3852 48.9776 75.3747 48.6205 75.3747C48.5695 75.3747 48.7735 73.8442 49.1307 71.9055C50.2021 66.2934 50.5082 58.1815 49.896 52.1614C47.7532 31.0908 38.0087 15.6833 26.7847 15.6833C18.3156 15.6833 11.3261 22.2647 6.53039 34.7641C5.20391 38.1824 4.64271 40.4272 3.11216 47.6718C2.90809 48.7432 3.06114 48.8452 5.459 48.8452C7.85686 48.8452 8.00992 48.7432 8.72418 47.1106C9.84658 44.4066 12.8567 41.4475 14.9994 40.8353C16.2239 40.4782 19.0299 40.3762 22.3971 40.5802C28.7234 40.9884 29.7947 41.5496 32.0395 45.529C36.9883 54.3552 35.6108 70.3749 29.4376 75.5788C27.2948 77.3644 26.3765 77.5175 19.5401 77.3134L13.673 77.1603L11.8363 75.3747C10.8669 74.4054 9.54047 72.6707 8.97927 71.4463C7.9589 69.3035 7.85686 69.2525 5.459 69.2525H2.95911L3.26522 71.1402C4.08151 76.4971 6.17326 83.2315 8.46908 87.8742C13.2138 97.5166 19.285 102.414 26.4785 102.414C29.7947 102.414 30.1008 102.516 32.4987 104.404C37.7536 108.537 38.6209 108.792 50.4572 108.945C58.8752 109.098 61.6812 108.945 64.1811 108.333C72.5481 106.19 80.3539 97.4146 84.7415 85.1702C86.17 81.1398 88.0576 73.0789 88.4658 68.9464L88.7209 66.3445L103.873 65.9873C112.189 65.8343 123.158 65.4261 128.311 65.12C133.464 64.8139 137.8 64.6609 137.954 64.8649C138.362 65.2731 137.137 68.0281 136.168 68.8954C135.148 69.8137 124.893 71.1402 114.893 71.7014L108.261 72.0585L108.414 74.0992C108.669 77.8236 111.067 85.6804 113.363 90.5782C117.444 99.2002 122.036 104.557 127.852 107.363L130.709 108.792H142.698H154.688L158.055 107.159C159.891 106.241 162.187 104.812 163.157 103.945C164.585 102.721 165.35 102.414 167.442 102.414C173.309 102.414 178.717 99.8635 182.237 95.4759C183.105 94.4045 184.38 92.874 185.094 92.0067C185.86 91.1394 187.033 89.2517 187.696 87.8742C189.278 84.8131 191.931 76.5481 192.441 73.334C192.951 69.7627 193.155 69.3545 194.482 69.0484C195.298 68.8444 195.859 68.1301 196.37 66.5996L197.135 64.4058L201.012 64.2527C205.298 64.0997 205.298 64.1507 205.553 60.0692L205.706 57.7734L201.471 57.6203C197.645 57.4673 197.288 57.3652 197.033 56.3449C196.829 55.3245 196.318 51.7022 196.267 50.7839C196.267 50.1717 194.686 48.8452 193.972 48.8452C193.359 48.8452 193.308 50.1717 193.564 56.4979L193.87 64.1507H188.411C183.666 64.1507 182.952 64.2527 182.697 65.018C181.982 67.3648 179.687 72.6707 179.023 73.5891C178.309 74.5584 178.309 74.5584 178.564 73.334C178.717 72.6197 179.023 70.528 179.176 68.5893L179.533 65.171H173.462H167.34L166.728 67.3138C165.963 69.8137 162.034 78.0787 161.779 77.7726C161.626 77.6705 161.932 75.4257 162.442 72.7728C163.463 66.8546 163.616 52.4675 162.646 46.5494C159.075 24.6625 148.718 9.8162 136.474 9.15296C130.046 8.74481 123.872 11.9079 118.975 18.0812C116.424 21.2443 112.291 29.3052 110.659 34.305C109.332 38.2844 107.904 45.2229 108.261 45.8351C108.465 46.0902 110.149 46.2943 112.036 46.2943C115.505 46.2943 129.791 47.5697 133.719 48.233C135.403 48.5391 136.066 48.9982 137.239 50.7839C138.005 51.9573 138.872 53.998 139.076 55.3245L139.433 57.7734L134.586 57.4673C131.882 57.2632 120.454 57.1102 109.179 57.0591L88.6188 57.0081V61.0896V65.12L82.7007 65.2731L76.7826 65.4261L75.6092 68.4872C74.3337 71.9565 71.2726 78.1297 71.0175 77.8746C70.9665 77.7726 71.1706 76.0379 71.5787 74.0992C72.6501 68.7933 73.0583 56.1408 72.344 49.8145C70.7624 35.1213 65.8137 22.9279 58.467 15.5302C54.0284 11.0406 50.5082 9.40805 45.2533 9.20398C42.7024 9.10194 40.6616 9.30601 39.1311 9.86722Z" fill="#61DCFB"/>
<path d="M55.0488 10.2755C60.2016 12.4183 64.6913 16.7548 68.4156 23.1831L70.5073 26.9075H76.0173C79.0274 26.9075 81.4763 26.8054 81.4763 26.7034C81.4763 25.8871 79.5886 22.3668 78.1091 20.3771C74.8949 16.1936 73.4664 14.7651 70.4053 12.6734C66.6299 10.0714 62.6505 9.05107 56.7324 9.05107H52.1407L55.0488 10.2755Z" fill="#61DCFB"/>
<path d="M145.351 10.0203C150.657 12.1631 155.606 17.0098 159.33 23.6422L161.167 26.9074H166.983C170.197 26.9074 172.799 26.7033 172.799 26.4992C172.799 26.2441 172.034 24.8156 171.115 23.2851C168.462 18.8975 168.513 18.8465 171.472 21.9586C173.003 23.6422 175.044 26.4482 175.962 28.2339L177.646 31.499H182.645C185.349 31.499 187.594 31.397 187.594 31.2439C187.594 30.6317 185.349 26.6013 184.074 24.8666C182.594 22.8769 178.462 18.4894 177.952 18.4383C177.799 18.4383 176.523 17.8771 175.146 17.2649C173.564 16.4996 171.268 15.9895 168.717 15.8364C165.605 15.5813 164.483 15.2752 163.514 14.4589C159.432 10.7346 156.014 9.56116 148.82 9.25505L142.953 8.99996L145.351 10.0203Z" fill="#61DCFB"/>
<path d="M14.3872 45.3761C13.3158 45.9373 11.6322 47.825 11.5812 48.4372C11.5812 48.6923 12.3974 48.8453 13.4178 48.8453C14.3872 48.8453 15.6626 49.0494 16.1728 49.3555C17.4483 50.0698 19.1829 53.1309 19.54 55.5287L19.8971 57.5185H10.6118C3.6223 57.5185 1.32648 57.6715 1.17342 58.1307C1.07138 58.4878 0.765275 60.0184 0.510183 61.4469L0 64.1508H9.38737C15.5606 64.1508 18.7237 64.3549 18.7237 64.661C18.7237 65.7324 17.1932 68.2323 16.2238 68.7425C15.6626 68.9976 14.3872 69.2527 13.4178 69.2527C12.3974 69.2527 11.5812 69.3547 11.5812 69.5078C11.5812 70.3751 13.3668 72.3138 14.5912 72.824C18.0605 74.2525 21.3256 69.9669 22.397 62.6203C23.4174 55.8348 21.0706 47.2638 17.7544 45.5802C15.9687 44.6108 15.7136 44.6108 14.3872 45.3761Z" fill="#61DCFB"/>
</svg>
