<svg width="206" height="100" viewBox="0 0 206 100" fill="none" xmlns="http://www.w3.org/2000/svg">
<path d="M39.1311 0.867216C36.6822 1.73453 31.4273 5.10173 31.1212 5.96904C31.0192 6.27515 32.0906 6.78534 33.5191 7.14247C38.1617 8.31589 43.4676 13.2647 46.7838 19.5399L48.3654 22.499H53.6713H58.9262L60.2016 25.6621C62.4975 31.3762 63.7219 38.3657 64.028 47.0898L64.2831 55.1507H58.9262H53.5693L52.906 57.2934C52.2938 59.3852 48.9776 66.3747 48.6205 66.3747C48.5695 66.3747 48.7735 64.8442 49.1307 62.9055C50.2021 57.2934 50.5082 49.1815 49.896 43.1614C47.7532 22.0908 38.0087 6.6833 26.7847 6.6833C18.3156 6.6833 11.3261 13.2647 6.53039 25.7641C5.20391 29.1824 4.64271 31.4272 3.11216 38.6718C2.90809 39.7432 3.06114 39.8452 5.459 39.8452C7.85686 39.8452 8.00992 39.7432 8.72418 38.1106C9.84658 35.4066 12.8567 32.4475 14.9994 31.8353C16.2239 31.4782 19.0299 31.3762 22.3971 31.5802C28.7234 31.9884 29.7947 32.5496 32.0395 36.529C36.9883 45.3552 35.6108 61.3749 29.4376 66.5788C27.2948 68.3644 26.3765 68.5175 19.5401 68.3134L13.673 68.1603L11.8363 66.3747C10.8669 65.4054 9.54047 63.6707 8.97927 62.4463C7.9589 60.3035 7.85686 60.2525 5.459 60.2525H2.95911L3.26522 62.1402C4.08151 67.4971 6.17326 74.2315 8.46908 78.8742C13.2138 88.5166 19.285 93.4144 26.4785 93.4144C29.7947 93.4144 30.1008 93.5164 32.4987 95.4041C37.7536 99.5366 38.6209 99.7917 50.4572 99.9447C58.8752 100.098 61.6812 99.9447 64.1811 99.3325C72.5481 97.1897 80.3539 88.4146 84.7415 76.1702C86.17 72.1398 88.0576 64.0789 88.4658 59.9464L88.7209 57.3445L103.873 56.9873C112.189 56.8343 123.158 56.4261 128.311 56.12C133.464 55.8139 137.8 55.6609 137.954 55.8649C138.362 56.2731 137.137 59.0281 136.168 59.8954C135.148 60.8137 124.893 62.1402 114.893 62.7014L108.261 63.0585L108.414 65.0992C108.669 68.8236 111.067 76.6804 113.363 81.5782C117.444 90.2002 122.036 95.5572 127.852 98.3632L130.709 99.7917H142.698H154.688L158.055 98.1591C159.891 97.2408 162.187 95.8123 163.157 94.9449C164.585 93.7205 165.35 93.4144 167.442 93.4144C173.309 93.4144 178.717 90.8635 182.237 86.4759C183.105 85.4045 184.38 83.874 185.094 83.0067C185.86 82.1394 187.033 80.2517 187.696 78.8742C189.278 75.8131 191.931 67.5481 192.441 64.334C192.951 60.7627 193.155 60.3545 194.482 60.0484C195.298 59.8444 195.859 59.1301 196.37 57.5996L197.135 55.4058L201.012 55.2527C205.298 55.0997 205.298 55.1507 205.553 51.0692L205.706 48.7734L201.471 48.6203C197.645 48.4673 197.288 48.3652 197.033 47.3449C196.829 46.3245 196.318 42.7022 196.267 41.7839C196.267 41.1717 194.686 39.8452 193.972 39.8452C193.359 39.8452 193.308 41.1717 193.564 47.4979L193.87 55.1507H188.411C183.666 55.1507 182.952 55.2527 182.697 56.018C181.982 58.3648 179.687 63.6707 179.023 64.5891C178.309 65.5584 178.309 65.5584 178.564 64.334C178.717 63.6197 179.023 61.528 179.176 59.5893L179.533 56.171H173.462H167.34L166.728 58.3138C165.963 60.8137 162.034 69.0787 161.779 68.7726C161.626 68.6705 161.932 66.4257 162.442 63.7728C163.463 57.8546 163.616 43.4675 162.646 37.5494C159.075 15.6625 148.718 0.816198 136.474 0.15296C130.046 -0.255186 123.872 2.90795 118.975 9.08116C116.424 12.2443 112.291 20.3052 110.659 25.305C109.332 29.2844 107.904 36.2229 108.261 36.8351C108.465 37.0902 110.149 37.2943 112.036 37.2943C115.505 37.2943 129.791 38.5697 133.719 39.233C135.403 39.5391 136.066 39.9982 137.239 41.7839C138.005 42.9573 138.872 44.998 139.076 46.3245L139.433 48.7734L134.586 48.4673C131.882 48.2632 120.454 48.1102 109.179 48.0591L88.6188 48.0081V52.0896V56.12L82.7007 56.2731L76.7826 56.4261L75.6092 59.4872C74.3337 62.9565 71.2726 69.1297 71.0175 68.8746C70.9665 68.7726 71.1706 67.0379 71.5787 65.0992C72.6501 59.7933 73.0583 47.1408 72.344 40.8145C70.7624 26.1213 65.8137 13.9279 58.467 6.53025C54.0284 2.04064 50.5082 0.408051 45.2533 0.203978C42.7024 0.101942 40.6616 0.306015 39.1311 0.867216Z" fill="white"/>
<path d="M55.0488 1.27551C60.2016 3.41828 64.6913 7.75483 68.4156 14.1831L70.5073 17.9075H76.0173C79.0274 17.9075 81.4763 17.8054 81.4763 17.7034C81.4763 16.8871 79.5886 13.3668 78.1091 11.3771C74.8949 7.19363 73.4664 5.76512 70.4053 3.67337C66.6299 1.07143 62.6505 0.0510678 56.7324 0.0510678H52.1407L55.0488 1.27551Z" fill="white"/>
<path d="M145.351 1.02032C150.657 3.16309 155.606 8.00983 159.33 14.6422L161.167 17.9074H166.983C170.197 17.9074 172.799 17.7033 172.799 17.4992C172.799 17.2441 172.034 15.8156 171.115 14.2851C168.462 9.8975 168.513 9.84649 171.472 12.9586C173.003 14.6422 175.044 17.4482 175.962 19.2339L177.646 22.499H182.645C185.349 22.499 187.594 22.397 187.594 22.2439C187.594 21.6317 185.349 17.6013 184.074 15.8666C182.594 13.8769 178.462 9.48936 177.952 9.43834C177.799 9.43834 176.523 8.87714 175.146 8.26492C173.564 7.49965 171.268 6.98946 168.717 6.83641C165.605 6.58132 164.483 6.27521 163.514 5.45891C159.432 1.73458 156.014 0.561157 148.82 0.255047L142.953 -4.41931e-05L145.351 1.02032Z" fill="white"/>
<path d="M14.3872 36.3761C13.3158 36.9373 11.6322 38.825 11.5812 39.4372C11.5812 39.6923 12.3974 39.8453 13.4178 39.8453C14.3872 39.8453 15.6626 40.0494 16.1728 40.3555C17.4483 41.0698 19.1829 44.1309 19.54 46.5287L19.8971 48.5185H10.6118C3.6223 48.5185 1.32648 48.6715 1.17342 49.1307C1.07138 49.4878 0.765275 51.0184 0.510183 52.4469L0 55.1508H9.38737C15.5606 55.1508 18.7237 55.3549 18.7237 55.661C18.7237 56.7324 17.1932 59.2323 16.2238 59.7425C15.6626 59.9976 14.3872 60.2527 13.4178 60.2527C12.3974 60.2527 11.5812 60.3547 11.5812 60.5078C11.5812 61.3751 13.3668 63.3138 14.5912 63.824C18.0605 65.2525 21.3256 60.9669 22.397 53.6203C23.4174 46.8348 21.0706 38.2638 17.7544 36.5802C15.9687 35.6108 15.7136 35.6108 14.3872 36.3761Z" fill="white"/>
</svg>
